<svg version="1.1" xmlns="http://www.w3.org/2000/svg" xmlns:xlink="http://www.w3.org/1999/xlink" width="1em" height="1em" viewBox="0,0,256,256"><g transform="translate(25.6,25.6) scale(0.8,0.8)"><g fill="#20c997" fill-rule="nonzero" stroke="none" stroke-width="1" stroke-linecap="butt" stroke-linejoin="miter" stroke-miterlimit="10" stroke-dasharray="" stroke-dashoffset="0" font-family="none" font-weight="none" font-size="none" text-anchor="none" style="mix-blend-mode: normal"><path d="M64,256c-35.34622,0 -64,-28.65378 -64,-64v-128c0,-35.34622 28.65378,-64 64,-64h128c35.34622,0 64,28.65378 64,64v128c0,35.34622 -28.65378,64 -64,64z" id="shape"></path></g><g fill="none" fill-rule="nonzero" stroke="none" stroke-width="1" stroke-linecap="butt" stroke-linejoin="miter" stroke-miterlimit="10" stroke-dasharray="" stroke-dashoffset="0" font-family="none" font-weight="none" font-size="none" text-anchor="none" style="mix-blend-mode: normal"><g><g transform="translate(25.6,25.6) scale(0.8,0.8)"><g fill="#fff97a"><path d="M48,288c-44.18278,0 -80,-35.81722 -80,-80v-160c0,-44.18278 35.81722,-80 80,-80h160c44.18278,0 80,35.81722 80,80v160c0,44.18278 -35.81722,80 -80,80z" id="shape"></path></g><g><g transform="scale(0.125,0.125)"><rect x="0" y="0" width="2048" height="2048" fill="none"></rect><path d="M1879,553c54.66667,54.66667 96.33333,116.66667 125,186c28.66667,69.33333 43.33333,143 44,221c0,23.33333 -0.66667,51.33333 -2,84c-1.33333,32.66667 -4,68 -8,106c-4,38 -10.33333,77 -19,117c-8.66667,40 -19.66667,79.66667 -33,119c-20,57.33333 -43.33333,104 -70,140c-26.66667,36 -54.33333,64.33333 -83,85c-28.66667,20.66667 -57.66667,34.66667 -87,42c-29.33333,7.33333 -56.66667,11 -82,11c-22,0 -42,-3.66667 -60,-11c-18,-7.33333 -35.33333,-17.33333 -52,-30c-16.66667,-12.66667 -32,-26.33333 -46,-41c-14,-14.66667 -28.33333,-30.66667 -43,-48c-14,-16 -27.66667,-31.33333 -41,-46c-13.33333,-14.66667 -27.66667,-27.66667 -43,-39c-15.33333,-11.33333 -30.66667,-21 -46,-29c-15.33333,-8 -33.33333,-12 -54,-12h-510c-19.33333,0.66667 -37,4.66667 -53,12c-16,7.33333 -31.66667,16.66667 -47,28c-15.33333,11.33333 -29.33333,24.66667 -42,40c-12.66667,15.33333 -26.66667,30.66667 -42,46c-14,16 -28,31.66667 -42,47c-14,15.33333 -29.33333,29.33333 -46,42c-16.66667,12.66667 -34,22.33333 -52,29c-18,6.66667 -38.33333,10.66667 -61,12c-25.33333,0 -52.66667,-3.66667 -82,-11c-29.33333,-7.33333 -58.33333,-21 -87,-41c-28.66667,-20 -56.33333,-48.33333 -83,-85c-26.66667,-36.66667 -50,-83.66667 -70,-141c-13.33333,-38.66667 -24,-78 -32,-118c-8,-40 -14.33333,-79.33333 -19,-118c-4.66667,-38.66667 -7.66667,-74 -9,-106c-1.33333,-32 -2,-60 -2,-84c0,-77.33333 14.33333,-150.66667 43,-220c28.66667,-69.33333 70.66667,-131.66667 126,-187c54,-54.66667 116,-96.33333 186,-125c70,-28.66667 143.66667,-43.33333 221,-44h896c77.33333,0 150.66667,14.33333 220,43c69.33333,28.66667 131.66667,70.66667 187,126M1865,1344c12.66667,-35.33333 22.66667,-72 30,-110c7.33333,-38 12.66667,-74.33333 16,-109c3.33333,-34.66667 5.66667,-66.66667 7,-96c1.33333,-29.33333 2,-52.33333 2,-69c0,-62 -11.66667,-120 -35,-174c-23.33333,-54 -55.33333,-101.33333 -96,-142c-40.66667,-40.66667 -88,-72.66667 -142,-96c-54,-23.33333 -112.33333,-35.33333 -175,-36h-896c-62,0 -120,11.66667 -174,35c-54,23.33333 -101.33333,55.33333 -142,96c-40.66667,40.66667 -72.66667,88 -96,142c-23.33333,54 -35.33333,112.33333 -36,175c0,17.33333 0.33333,40.33333 1,69c0.66667,28.66667 3,60.33333 7,95c4,34.66667 9.66667,71.33333 17,110c7.33333,38.66667 17.33333,75.33333 30,110c16.66667,48 35,85 55,111c20,26 39.33333,45 58,57c18.66667,12 36,19 52,21c16,2 28,3 36,3c14.66667,0 30.66667,-8.66667 48,-26c17.33333,-17.33333 36,-37.33333 56,-60c16,-18.66667 33,-37.66667 51,-57c18,-19.33333 38.33333,-37.33333 61,-54c22.66667,-16.66667 47.66667,-30.33333 75,-41c27.33333,-10.66667 57.66667,-16.66667 91,-18h516c33.33333,1.33333 63.66667,7.33333 91,18c27.33333,10.66667 52,24 74,40c22,16 42.33333,34 61,54c18.66667,20 36,39.33333 52,58c19.33333,22 37.66667,41.66667 55,59c17.33333,17.33333 33.66667,26.33333 49,27c8,0 19.66667,-1 35,-3c15.33333,-2 32.66667,-9 52,-21c19.33333,-12 39,-31 59,-57c20,-26 38.33333,-63 55,-111M512,896h128v128h-128v128h-128v-128h-128v-128h128v-128h128zM1664,1024c18,0 34.66667,3.33333 50,10c15.33333,6.66667 28.66667,15.66667 40,27c11.33333,11.33333 20.66667,25 28,41c7.33333,16 10.66667,32.66667 10,50c0,18 -3.33333,34.66667 -10,50c-6.66667,15.33333 -15.66667,28.66667 -27,40c-11.33333,11.33333 -25,20.66667 -41,28c-16,7.33333 -32.66667,10.66667 -50,10c-18,0 -34.66667,-3.33333 -50,-10c-15.33333,-6.66667 -28.66667,-15.66667 -40,-27c-11.33333,-11.33333 -20.66667,-25 -28,-41c-7.33333,-16 -10.66667,-32.66667 -10,-50c0,-18 3.33333,-34.66667 10,-50c6.66667,-15.33333 15.66667,-28.66667 27,-40c11.33333,-11.33333 25,-20.66667 41,-28c16,-7.33333 32.66667,-10.66667 50,-10M1408,768c18,0 34.66667,3.33333 50,10c15.33333,6.66667 28.66667,15.66667 40,27c11.33333,11.33333 20.66667,25 28,41c7.33333,16 10.66667,32.66667 10,50c0,18 -3.33333,34.66667 -10,50c-6.66667,15.33333 -15.66667,28.66667 -27,40c-11.33333,11.33333 -25,20.66667 -41,28c-16,7.33333 -32.66667,10.66667 -50,10c-18,0 -34.66667,-3.33333 -50,-10c-15.33333,-6.66667 -28.66667,-15.66667 -40,-27c-11.33333,-11.33333 -20.66667,-25 -28,-41c-7.33333,-16 -10.66667,-32.66667 -10,-50c0,-18 3.33333,-34.66667 10,-50c6.66667,-15.33333 15.66667,-28.66667 27,-40c11.33333,-11.33333 25,-20.66667 41,-28c16,-7.33333 32.66667,-10.66667 50,-10" fill="#bf47ff"></path></g></g></g></g></g></g></svg>